<svg width="26" height="13" viewBox="0 0 26 13" fill="none" xmlns="http://www.w3.org/2000/svg">
<path d="M8.4585 2.24658L6.45528 5.05098L8.81095 10.3092L12.447 10.3092L8.4585 2.24658Z" fill="url(#paint0_linear_5591_1293)"/>
<path d="M17.6228 2.24658L15.6196 5.05098L17.9753 10.3092L21.6113 10.3092L17.6228 2.24658Z" fill="url(#paint1_linear_5591_1293)"/>
<path d="M5.05044 2.85898C5.81284 1.73428 7.35526 1.4572 8.45901 2.24665V2.24665L3.52466 10.3093L0.000105375 10.3093L5.05044 2.85898Z" fill="url(#paint2_linear_5591_1293)"/>
<path d="M14.1685 2.83381C14.9638 1.72395 16.5082 1.46143 17.623 2.24659V2.24659L12.6885 10.3312L8.81158 10.3093L14.1685 2.83381Z" fill="url(#paint3_linear_5591_1293)"/>
<path d="M22.8491 1.94691C22.8851 1.8852 22.9513 1.84719 23.0228 1.84719L24.4846 1.84722C24.6218 1.84722 24.7181 1.98156 24.6736 2.11105L21.8526 10.3312L17.9757 10.3092L22.8491 1.94691Z" fill="url(#paint4_linear_5591_1293)"/>
<defs>
<linearGradient id="paint0_linear_5591_1293" x1="6.99293" y1="2.96506" x2="10.9525" y2="11.0419" gradientUnits="userSpaceOnUse">
<stop stop-color="#EAA128"/>
<stop offset="1" stop-color="#B26D21"/>
</linearGradient>
<linearGradient id="paint1_linear_5591_1293" x1="16.1572" y1="2.96506" x2="20.1168" y2="11.0419" gradientUnits="userSpaceOnUse">
<stop stop-color="#EAA128"/>
<stop offset="1" stop-color="#B26D21"/>
</linearGradient>
<linearGradient id="paint2_linear_5591_1293" x1="6.84448" y1="1.00151" x2="1.8394" y2="11.211" gradientUnits="userSpaceOnUse">
<stop stop-color="#0AA099"/>
<stop offset="1" stop-color="#0CD7BA"/>
</linearGradient>
<linearGradient id="paint3_linear_5591_1293" x1="15.8578" y1="0.949687" x2="10.7932" y2="11.2807" gradientUnits="userSpaceOnUse">
<stop stop-color="#0AA099"/>
<stop offset="1" stop-color="#0CD7BA"/>
</linearGradient>
<linearGradient id="paint4_linear_5591_1293" x1="24.8781" y1="1.16756" x2="19.9273" y2="11.2662" gradientUnits="userSpaceOnUse">
<stop stop-color="#0AA099"/>
<stop offset="1" stop-color="#0CD7BA"/>
</linearGradient>
</defs>
</svg>
