<svg width="12" height="20" viewBox="0 0 12 20" fill="none" xmlns="http://www.w3.org/2000/svg">
<path d="M11.925 13.1175C11.925 14.7711 11.3446 16.1782 10.1839 17.3389C9.02325 18.4996 7.6161 19.08 5.9625 19.08C4.3089 19.08 2.90175 18.4996 1.74105 17.3389C0.58035 16.1782 0 14.7711 0 13.1175V4.293C0 3.1005 0.417534 2.08703 1.2526 1.2526C2.08767 0.418171 3.10114 0.000636725 4.293 7.25475e-07C5.48486 -0.000635275 6.49865 0.416899 7.33435 1.2526C8.17006 2.08831 8.58727 3.10177 8.586 4.293V12.6405C8.586 13.3719 8.3316 13.992 7.8228 14.5008C7.314 15.0096 6.6939 15.264 5.9625 15.264C5.2311 15.264 4.611 15.0096 4.1022 14.5008C3.5934 13.992 3.339 13.3719 3.339 12.6405V4.77C3.339 4.4997 3.43058 4.27328 3.61375 4.09075C3.79692 3.90822 4.02334 3.81664 4.293 3.816C4.56266 3.81536 4.7894 3.90695 4.9732 4.09075C5.15701 4.27456 5.24827 4.50097 5.247 4.77V12.6405C5.247 12.8472 5.31473 13.0183 5.4502 13.1538C5.58567 13.2892 5.75644 13.3566 5.9625 13.356C6.16856 13.3554 6.33965 13.2876 6.47575 13.1528C6.61186 13.018 6.67927 12.8472 6.678 12.6405V4.293C6.6621 3.6252 6.42773 3.06075 5.9749 2.59965C5.52207 2.13855 4.96144 1.908 4.293 1.908C3.62456 1.908 3.06011 2.13855 2.59965 2.59965C2.13919 3.06075 1.90864 3.6252 1.908 4.293V13.1175C1.8921 14.2464 2.28165 15.2045 3.07665 15.9919C3.87165 16.7793 4.8336 17.1726 5.9625 17.172C7.0755 17.172 8.02155 16.7786 8.80065 15.9919C9.57975 15.2052 9.9852 14.247 10.017 13.1175V4.77C10.017 4.4997 10.1086 4.27328 10.2918 4.09075C10.4749 3.90822 10.7013 3.81664 10.971 3.816C11.2407 3.81536 11.4674 3.90695 11.6512 4.09075C11.835 4.27456 11.9263 4.50097 11.925 4.77V13.1175Z" fill="#48535B"/>
</svg>
