<svg width="10" height="10" viewBox="0 0 10 10" fill="none" xmlns="http://www.w3.org/2000/svg">
<path fill-rule="evenodd" clip-rule="evenodd" d="M5.00834 5.95179L8.84933 9.79278C8.97738 9.91646 9.14889 9.98489 9.32692 9.98335C9.50495 9.9818 9.67524 9.91039 9.80113 9.78451C9.92702 9.65862 9.99843 9.48832 9.99997 9.3103C10.0015 9.13227 9.93308 8.96076 9.8094 8.8327L5.96842 4.99172L9.8094 1.15073C9.93308 1.02268 10.0015 0.851166 9.99997 0.67314C9.99843 0.495114 9.92702 0.324818 9.80113 0.19893C9.67524 0.0730413 9.50495 0.0016337 9.32692 8.67023e-05C9.14889 -0.0014603 8.97738 0.0669769 8.84933 0.190658L5.00834 4.03164L1.16736 0.190658C1.03873 0.0700343 0.868211 0.00418739 0.691892 0.00705051C0.515573 0.00991362 0.347284 0.0812623 0.222636 0.205999C0.0979868 0.330736 0.0267571 0.499075 0.0240187 0.675396C0.0212803 0.851717 0.0872479 1.02219 0.207963 1.15073L4.04827 4.99172L0.207284 8.8327C0.142435 8.89533 0.0907087 8.97026 0.0551242 9.05309C0.0195396 9.13593 0.000809053 9.22503 2.56362e-05 9.31518C-0.000757781 9.40534 0.0164214 9.49474 0.050561 9.57819C0.0847007 9.66163 0.135117 9.73744 0.198868 9.80119C0.262619 9.86494 0.338429 9.91536 0.421873 9.9495C0.505317 9.98364 0.594724 10.0008 0.684878 10C0.775033 9.99925 0.864128 9.98052 0.946967 9.94494C1.0298 9.90935 1.10473 9.85763 1.16736 9.79278L5.00834 5.95179Z" fill="white"/>
</svg>
