<svg width="20" height="20" viewBox="0 0 20 20" fill="none" xmlns="http://www.w3.org/2000/svg">
<g clip-path="url(#clip0_289_814)">
<path d="M4.16663 6.66683C2.49996 6.66683 1.66663 7.50016 1.66663 9.16683V15.8335C1.66663 17.5002 2.49996 18.3335 4.16663 18.3335H10.8333C9.16663 18.3335 8.33329 17.5002 8.33329 15.8335V6.66683M4.16663 6.66683H8.33329M4.16663 6.66683V5.00016C4.16663 4.0835 4.91663 3.3335 5.83329 3.3335H8.42496C8.35829 3.5835 8.33329 3.8585 8.33329 4.16683V6.66683M11.6666 6.66683V10.8335M15 6.66683V10.8335M4.99996 10.8335V14.1668M14.1666 14.1668H12.5C12.0416 14.1668 11.6666 14.5418 11.6666 15.0002V18.3335H15V15.0002C15 14.5418 14.625 14.1668 14.1666 14.1668Z" stroke="#48535B" stroke-width="1.5" stroke-miterlimit="10" stroke-linecap="round" stroke-linejoin="round"/>
<path d="M8.33337 15.8332V4.1665C8.33337 2.49984 9.16671 1.6665 10.8334 1.6665H15.8334C17.5 1.6665 18.3334 2.49984 18.3334 4.1665V15.8332C18.3334 17.4998 17.5 18.3332 15.8334 18.3332H10.8334C9.16671 18.3332 8.33337 17.4998 8.33337 15.8332Z" stroke="#48535B" stroke-width="1.5" stroke-miterlimit="10" stroke-linecap="round" stroke-linejoin="round"/>
</g>
<defs>
<clipPath id="clip0_289_814">
<rect width="20" height="20" fill="white"/>
</clipPath>
</defs>
</svg>
