<svg width="16" height="16" viewBox="0 0 16 16" fill="none" xmlns="http://www.w3.org/2000/svg">
<path d="M14.6723 3.60851C13.2426 1.42979 10.7915 0 8 0C5.20851 0 2.75745 1.42979 1.32766 3.60851C1.32766 3.64255 1.29362 3.64255 1.29362 3.6766C0.476596 4.90213 0 6.4 0 8C0 9.6 0.476596 11.0979 1.29362 12.3234C1.29362 12.3574 1.32766 12.3574 1.32766 12.3915C2.75745 14.5702 5.20851 16 8 16C10.7915 16 13.2426 14.5702 14.6723 12.3915C14.6723 12.3915 14.6723 12.3574 14.7064 12.3574C15.5234 11.0979 16 9.6 16 8C16 6.4 15.5234 4.90213 14.7064 3.64255L14.6723 3.60851ZM14.0255 11.5064C13.4468 11.3702 12.8681 11.2681 12.2213 11.2C12.4255 10.383 12.5617 9.46383 12.5957 8.51064H14.9787C14.8766 9.6 14.5362 10.6213 14.0255 11.5064ZM1.05532 8.51064H3.4383C3.47234 9.46383 3.60851 10.383 3.81277 11.2C3.16596 11.3021 2.55319 11.4043 1.97447 11.5064C1.46383 10.6213 1.1234 9.6 1.05532 8.51064ZM1.97447 4.49362C2.55319 4.62979 3.13191 4.73191 3.77872 4.8C3.57447 5.61702 3.4383 6.53617 3.40426 7.48936H1.02128C1.1234 6.4 1.46383 5.37872 1.97447 4.49362ZM8.51064 5.0383C9.42979 5.0383 10.3149 4.97021 11.2 4.90213C11.4043 5.68511 11.5404 6.57021 11.5745 7.48936H8.51064V5.0383ZM8.51064 4.01702V1.08936C9.46383 1.3617 10.3149 2.41702 10.8596 3.88085C10.1106 3.98298 9.32766 4.01702 8.51064 4.01702ZM7.48936 1.08936V4.01702C6.67234 4.01702 5.88936 3.94894 5.14043 3.88085C5.68511 2.41702 6.53617 1.39574 7.48936 1.08936ZM7.48936 5.0383V7.48936H4.42553C4.45957 6.57021 4.59574 5.68511 4.8 4.90213C5.68511 5.00425 6.57021 5.0383 7.48936 5.0383ZM4.42553 8.51064H7.48936V10.9617C6.57021 10.9617 5.68511 11.0298 4.8 11.0979C4.59574 10.3149 4.45957 9.42979 4.42553 8.51064ZM7.48936 11.983V14.9106C6.53617 14.6383 5.68511 13.583 5.14043 12.1191C5.88936 12.017 6.67234 11.983 7.48936 11.983ZM8.51064 14.9106V11.983C9.32766 11.983 10.1106 12.0511 10.8596 12.1191C10.3149 13.583 9.46383 14.6043 8.51064 14.9106ZM8.51064 10.9617V8.51064H11.5745C11.5404 9.42979 11.4043 10.3149 11.2 11.0979C10.3149 10.9957 9.42979 10.9617 8.51064 10.9617ZM12.5957 7.48936C12.5617 6.53617 12.4255 5.61702 12.2213 4.8C12.834 4.73191 13.4468 4.62979 14.0255 4.49362C14.5362 5.37872 14.8766 6.4 14.9787 7.48936H12.5957ZM13.3787 3.57447C12.9021 3.6766 12.4255 3.74468 11.9149 3.81277C11.6085 2.9617 11.234 2.21277 10.7915 1.63404C11.8128 2.04255 12.6979 2.7234 13.3787 3.57447ZM5.20851 1.6C4.76596 2.21277 4.35745 2.92766 4.08511 3.77872C3.57447 3.74468 3.09787 3.64255 2.62128 3.57447C3.30213 2.7234 4.18723 2.04255 5.20851 1.6ZM2.62128 12.4255C3.09787 12.3234 3.57447 12.2553 4.08511 12.1872C4.39149 13.0383 4.76596 13.7872 5.20851 14.366C4.18723 13.9574 3.30213 13.2766 2.62128 12.4255ZM10.7915 14.4C11.234 13.7872 11.6426 13.0723 11.9149 12.2213C12.4255 12.2894 12.9021 12.3574 13.3787 12.4596C12.6979 13.2766 11.8128 13.9574 10.7915 14.4Z" fill="#48535B"/>
</svg>
