<svg width="20" height="20" viewBox="0 0 20 20" fill="none" xmlns="http://www.w3.org/2000/svg">
<path d="M18.1445 1.28906H13.8151C13.6533 1.28906 13.5221 1.4202 13.5221 1.58203C13.5221 1.74387 13.6533 1.875 13.8151 1.875H18.1445C18.8446 1.875 19.4141 2.44449 19.4141 3.14453V14.2773C19.4141 14.9774 18.8446 15.5469 18.1445 15.5469H1.85547C1.15543 15.5469 0.585938 14.9774 0.585938 14.2773V3.14453C0.585938 2.44449 1.15543 1.875 1.85547 1.875H12.4479C12.6098 1.875 12.7409 1.74387 12.7409 1.58203C12.7409 1.4202 12.6098 1.28906 12.4479 1.28906H1.85547C0.832383 1.28906 0 2.12145 0 3.14453V16.8555C0 17.8786 0.832383 18.7109 1.85547 18.7109H6.83594C6.99777 18.7109 7.12891 18.5798 7.12891 18.418C7.12891 18.2561 6.99777 18.125 6.83594 18.125H1.85547C1.15543 18.125 0.585938 17.5555 0.585938 16.8555V15.6287C0.918125 15.9409 1.36469 16.1328 1.85547 16.1328H18.1445C18.6353 16.1328 19.0819 15.9409 19.4141 15.6287V16.8555C19.4141 17.5555 18.8446 18.125 18.1445 18.125H8.20312C8.04129 18.125 7.91016 18.2561 7.91016 18.418C7.91016 18.5798 8.04129 18.7109 8.20312 18.7109H18.1445C19.1676 18.7109 20 17.8786 20 16.8555V3.14453C20 2.12145 19.1676 1.28906 18.1445 1.28906Z" fill="black"/>
<path d="M2.333 9.516C2.333 9.006 2.435 8.559 2.639 8.175C2.849 7.785 3.137 7.485 3.503 7.275C3.869 7.065 4.289 6.96 4.763 6.96C5.363 6.96 5.858 7.104 6.248 7.392C6.644 7.674 6.911 8.079 7.049 8.607H5.942C5.852 8.361 5.708 8.169 5.51 8.031C5.312 7.893 5.063 7.824 4.763 7.824C4.343 7.824 4.007 7.974 3.755 8.274C3.509 8.568 3.386 8.982 3.386 9.516C3.386 10.05 3.509 10.467 3.755 10.767C4.007 11.067 4.343 11.217 4.763 11.217C5.357 11.217 5.75 10.956 5.942 10.434H7.049C6.905 10.938 6.635 11.34 6.239 11.64C5.843 11.934 5.351 12.081 4.763 12.081C4.289 12.081 3.869 11.976 3.503 11.766C3.137 11.55 2.849 11.25 2.639 10.866C2.435 10.476 2.333 10.026 2.333 9.516ZM9.26848 7.878V10.623C9.26848 10.809 9.31048 10.944 9.39448 11.028C9.48448 11.106 9.63448 11.145 9.84448 11.145H10.4745V12H9.66448C9.20248 12 8.84848 11.892 8.60248 11.676C8.35648 11.46 8.23348 11.109 8.23348 10.623V7.878H7.64848V7.041H8.23348V5.808H9.26848V7.041H10.4745V7.878H9.26848ZM12.4461 7.761C12.5961 7.509 12.7941 7.314 13.0401 7.176C13.2921 7.032 13.5891 6.96 13.9311 6.96V8.022H13.6701C13.2681 8.022 12.9621 8.124 12.7521 8.328C12.5481 8.532 12.4461 8.886 12.4461 9.39V12H11.4201V7.041H12.4461V7.761ZM15.9002 5.34V12H14.8742V5.34H15.9002Z" fill="black"/>
</svg>
