<svg width="18" height="18" viewBox="0 0 18 18" fill="none" xmlns="http://www.w3.org/2000/svg">
<path d="M15.6 4.286C13.269 4.055 10.924 3.936 8.586 3.936C7.2 3.936 5.814 4.006 4.428 4.146L3 4.286M6.85 3.579L7.004 2.662C7.116 1.997 7.2 1.5 8.383 1.5H10.217C11.4 1.5 11.491 2.025 11.596 2.669L11.75 3.579M14.095 6.498L13.64 13.547C13.563 14.646 13.5 15.5 11.547 15.5H7.053C5.1 15.5 5.037 14.646 4.96 13.547L4.505 6.498M8.131 11.65H10.462M7.55 8.85H11.05" stroke="#D15757" stroke-linecap="round" stroke-linejoin="round"/>
</svg>
