<svg width="20" height="20" viewBox="0 0 20 20" fill="none" xmlns="http://www.w3.org/2000/svg">
<path d="M18.3333 5.41667H13.3333M4.99996 5.41667H1.66663M18.3333 14.5833H15M6.66663 14.5833H1.66663M8.33329 8.33333C8.71631 8.33333 9.09559 8.25789 9.44945 8.11132C9.80332 7.96474 10.1248 7.7499 10.3957 7.47906C10.6665 7.20822 10.8814 6.88669 11.0279 6.53283C11.1745 6.17896 11.25 5.79969 11.25 5.41667C11.25 5.03364 11.1745 4.65437 11.0279 4.30051C10.8814 3.94664 10.6665 3.62511 10.3957 3.35427C10.1248 3.08343 9.80332 2.86859 9.44945 2.72202C9.09559 2.57544 8.71631 2.5 8.33329 2.5C7.55974 2.5 6.81788 2.80729 6.2709 3.35427C5.72392 3.90125 5.41663 4.64312 5.41663 5.41667C5.41663 6.19021 5.72392 6.93208 6.2709 7.47906C6.81788 8.02604 7.55974 8.33333 8.33329 8.33333ZM11.6666 17.5C12.4402 17.5 13.182 17.1927 13.729 16.6457C14.276 16.0987 14.5833 15.3569 14.5833 14.5833C14.5833 13.8098 14.276 13.0679 13.729 12.5209C13.182 11.974 12.4402 11.6667 11.6666 11.6667C10.8931 11.6667 10.1512 11.974 9.60423 12.5209C9.05725 13.0679 8.74996 13.8098 8.74996 14.5833C8.74996 15.3569 9.05725 16.0987 9.60423 16.6457C10.1512 17.1927 10.8931 17.5 11.6666 17.5Z" stroke="#48535B" stroke-width="1.5" stroke-miterlimit="10" stroke-linecap="round" stroke-linejoin="round"/>
</svg>
