<svg width="20" height="20" viewBox="0 0 20 20" fill="none" xmlns="http://www.w3.org/2000/svg">
<g clip-path="url(#clip0_328_2422)">
<path fill-rule="evenodd" clip-rule="evenodd" d="M10.5892 13.0893C10.4329 13.2455 10.221 13.3333 10 13.3333C9.77903 13.3333 9.56711 13.2455 9.41083 13.0893L4.69667 8.37512C4.61708 8.29825 4.55359 8.2063 4.50992 8.10463C4.46624 8.00296 4.44325 7.89361 4.44229 7.78296C4.44133 7.67231 4.46242 7.56258 4.50432 7.46016C4.54622 7.35775 4.60809 7.2647 4.68634 7.18646C4.76458 7.10822 4.85763 7.04634 4.96004 7.00444C5.06245 6.96254 5.17219 6.94145 5.28284 6.94241C5.39348 6.94338 5.50283 6.96636 5.6045 7.01004C5.70617 7.05371 5.79813 7.1172 5.875 7.19679L10 11.3218L14.125 7.19679C14.2822 7.04499 14.4927 6.961 14.7112 6.96289C14.9297 6.96479 15.1387 7.05243 15.2932 7.20694C15.4477 7.36145 15.5353 7.57046 15.5372 7.78896C15.5391 8.00745 15.4551 8.21795 15.3033 8.37512L10.5892 13.0893Z" fill="white"/>
</g>
<defs>
<clipPath id="clip0_328_2422">
<rect width="20" height="20" fill="white"/>
</clipPath>
</defs>
</svg>
