<svg width="24" height="24" viewBox="0 0 24 24" fill="none" xmlns="http://www.w3.org/2000/svg">
<mask id="mask0_294_1773" style="mask-type:luminance" maskUnits="userSpaceOnUse" x="4" y="0" width="16" height="10">
<path d="M4.6167 0.799805H19.2834V9.10501H4.6167V0.799805Z" fill="white"/>
</mask>
<g mask="url(#mask0_294_1773)">
<path d="M19.1107 4.9446L11.9263 0.799805L4.87109 5.0373L11.9221 9.08418L19.1107 4.9446Z" fill="#6366F1"/>
</g>
<mask id="mask1_294_1773" style="mask-type:luminance" maskUnits="userSpaceOnUse" x="1" y="5" width="22" height="18">
<path d="M1.6001 5.37158H22.2001V22.9997H1.6001V5.37158Z" fill="white"/>
</mask>
<g mask="url(#mask1_294_1773)">
<path d="M11.9259 11.5557L11.8686 17.6265L11.8644 17.888L11.38 11.2276L1.63109 5.59111L1.604 5.57861V16.8984C2.51859 17.4005 3.41963 17.9286 4.31546 18.4557C3.61442 19.9297 2.7488 21.3182 2.08317 22.8099C3.94255 22.1526 5.75817 21.363 7.604 20.6703C7.954 20.4838 8.27796 20.7411 8.58005 20.9057C8.89046 21.0922 9.20609 21.2744 9.5165 21.4557L11.9259 22.9963L22.2748 16.9213H22.279L22.2925 5.58695C18.8269 7.55257 15.3738 9.55465 11.9259 11.5557ZM17.8811 15.0255C17.5842 15.0255 17.3269 14.8442 17.2113 14.5869C17.1717 14.4974 17.154 14.4005 17.154 14.2942C17.154 13.8901 17.4821 13.5619 17.8863 13.5619C17.9696 13.5619 18.054 13.5744 18.13 13.6057C18.4134 13.7036 18.6134 13.9744 18.6134 14.2942C18.6092 14.6974 18.2853 15.0255 17.8811 15.0255Z" fill="#6366F1"/>
</g>
</svg>
