<svg width="20" height="20" viewBox="0 0 20 20" fill="none" xmlns="http://www.w3.org/2000/svg">
<path d="M18.3334 18.3332L16.6667 16.6665M9.58341 17.4998C10.623 17.4998 11.6525 17.2951 12.613 16.8972C13.5735 16.4994 14.4462 15.9162 15.1813 15.1811C15.9165 14.446 16.4996 13.5732 16.8975 12.6127C17.2953 11.6523 17.5001 10.6228 17.5001 9.58317C17.5001 8.54354 17.2953 7.51409 16.8975 6.55359C16.4996 5.5931 15.9165 4.72037 15.1813 3.98524C14.4462 3.25011 13.5735 2.66697 12.613 2.26912C11.6525 1.87127 10.623 1.6665 9.58341 1.6665C7.48378 1.6665 5.47015 2.50058 3.98549 3.98524C2.50082 5.4699 1.66675 7.48354 1.66675 9.58317C1.66675 11.6828 2.50082 13.6964 3.98549 15.1811C5.47015 16.6658 7.48378 17.4998 9.58341 17.4998Z" stroke="#48535B" stroke-width="1.2" stroke-linecap="round" stroke-linejoin="round"/>
</svg>
