<svg width="10" height="10" viewBox="0 0 10 10" fill="none" xmlns="http://www.w3.org/2000/svg">
<g clip-path="url(#clip0_503_1829)">
<path fill-rule="evenodd" clip-rule="evenodd" d="M5.18814 6.68814C5.09438 6.78188 4.96723 6.83454 4.83464 6.83454C4.70206 6.83454 4.57491 6.78188 4.48114 6.68814L1.65264 3.85964C1.60489 3.81352 1.5668 3.75835 1.54059 3.69735C1.51439 3.63634 1.5006 3.57073 1.50002 3.50434C1.49944 3.43796 1.51209 3.37212 1.53723 3.31067C1.56237 3.24922 1.5995 3.19339 1.64645 3.14645C1.69339 3.0995 1.74922 3.06237 1.81067 3.03723C1.87212 3.01209 1.93796 2.99944 2.00434 3.00002C2.07073 3.0006 2.13634 3.01439 2.19735 3.04059C2.25835 3.0668 2.31352 3.10489 2.35964 3.15264L4.83464 5.62764L7.30964 3.15264C7.40395 3.06156 7.53025 3.01117 7.66134 3.01231C7.79244 3.01345 7.91785 3.06603 8.01055 3.15873C8.10326 3.25144 8.15584 3.37685 8.15698 3.50794C8.15812 3.63904 8.10772 3.76534 8.01664 3.85964L5.18814 6.68814Z" fill="#8E24AA"/>
</g>
<defs>
<clipPath id="clip0_503_1829">
<rect width="10" height="10" fill="white"/>
</clipPath>
</defs>
</svg>
