<svg width="16" height="16" viewBox="0 0 16 16" fill="none" xmlns="http://www.w3.org/2000/svg">
<path d="M11.3075 1.99999C12.7625 1.99999 13.9325 3.17749 13.9325 4.62499C13.9325 6.04249 12.8075 7.19749 11.405 7.24999C11.3403 7.24249 11.2748 7.24249 11.21 7.24999M12.755 14C13.295 13.8875 13.805 13.67 14.225 13.3475C15.395 12.47 15.395 11.0225 14.225 10.145C13.8125 9.82999 13.31 9.61999 12.7775 9.49999M5.87004 7.15249C5.79504 7.14499 5.70504 7.14499 5.62254 7.15249C4.76169 7.12326 3.94602 6.76012 3.34826 6.13996C2.7505 5.5198 2.41759 4.69133 2.42004 3.82999C2.42004 1.99249 3.90504 0.499992 5.75004 0.499992C6.63222 0.484079 7.48458 0.819261 8.11963 1.4318C8.75467 2.04434 9.12038 2.88407 9.13629 3.76624C9.1522 4.64842 8.81702 5.50078 8.20448 6.13583C7.59194 6.77088 6.75222 7.13658 5.87004 7.15249ZM2.12004 9.91999C0.305039 11.135 0.305039 13.115 2.12004 14.3225C4.18254 15.7025 7.56504 15.7025 9.62754 14.3225C11.4425 13.1075 11.4425 11.1275 9.62754 9.91999C7.57254 8.54749 4.19004 8.54749 2.12004 9.91999Z" stroke="#48535B" stroke-linecap="round" stroke-linejoin="round"/>
</svg>
