<svg width="16" height="16" viewBox="0 0 16 16" fill="none" xmlns="http://www.w3.org/2000/svg">
<g opacity="0.98">
<path d="M10.6359 15H5.36406C2.9577 15 1 13.0423 1 10.6359V5.36406C1 2.9577 2.9577 1 5.36406 1H10.6359C13.0423 1 15 2.9577 15 5.36406V10.6359C15 13.0423 13.0423 15 10.6359 15Z" fill="#FFEB4B"/>
<path d="M15 10.6359V5.36406C15 2.9577 13.0423 1 10.6359 1H8V15H10.6359C13.0423 15 15 13.0423 15 10.6359Z" fill="#FFBE00"/>
<path d="M8.00018 11.2575C6.94146 11.2575 5.88279 10.8549 5.0764 10.0496C4.92174 9.89742 4.91187 9.64892 5.05764 9.48491C5.20817 9.31555 5.46725 9.30026 5.63659 9.45073L5.63683 9.45095C5.64282 9.45629 5.64867 9.46178 5.65436 9.46747C6.94665 10.7597 9.04851 10.761 10.3423 9.47111C10.4168 9.39468 10.5209 9.34724 10.636 9.34724C10.8625 9.34724 11.0461 9.53077 11.0461 9.75729C11.0461 9.86606 11.0029 9.97059 10.926 10.0475C10.1193 10.8542 9.05975 11.2575 8.00018 11.2575Z" fill="#1E4650"/>
<path d="M10.6359 9.34717C10.5208 9.34717 10.4168 9.39461 10.3423 9.47104C9.69597 10.1154 8.84798 10.4376 8 10.4375V11.2575H8.00014C9.05971 11.2575 10.1193 10.8541 10.926 10.0475C11.0029 9.97055 11.0461 9.86602 11.0461 9.75724C11.0461 9.53067 10.8625 9.34717 10.6359 9.34717Z" fill="#0A1E28"/>
<path d="M11.8045 6.3912L10.9263 5.51332C10.7662 5.35306 10.5065 5.35298 10.3463 5.51308L9.46742 6.3912C9.30718 6.55129 9.30707 6.811 9.46717 6.97124C9.62729 7.1315 9.887 7.13158 10.0472 6.97148L10.636 6.38329L11.2247 6.97151C11.3849 7.13161 11.6446 7.13153 11.8047 6.97127C11.9649 6.811 11.9647 6.55132 11.8045 6.3912Z" fill="#0A1E28"/>
<path d="M6.53154 6.38973L5.65339 5.51186C5.49327 5.3516 5.23356 5.35152 5.07335 5.51161L4.19447 6.38973C4.03423 6.54983 4.03412 6.80954 4.19422 6.96977C4.35435 7.13003 4.61406 7.13012 4.77426 6.97002L5.363 6.3818L5.95174 6.97002C6.11197 7.13012 6.37166 7.13003 6.53178 6.96977C6.69188 6.80954 6.69177 6.54983 6.53154 6.38973Z" fill="#1E4650"/>
</g>
</svg>
