<svg width="16" height="16" viewBox="0 0 16 16" fill="none" xmlns="http://www.w3.org/2000/svg">
<path d="M8.00005 4.2935V6.5135M8.01339 1.3335C5.56005 1.3335 3.57339 3.32016 3.57339 5.7735V7.1735C3.57339 7.62683 3.38672 8.30683 3.15339 8.6935L2.30672 10.1068C1.78672 10.9802 2.14672 11.9535 3.10672 12.2735C6.29424 13.3335 9.7392 13.3335 12.9267 12.2735C13.137 12.2033 13.3289 12.0868 13.4882 11.9325C13.6474 11.7783 13.77 11.5902 13.8468 11.3822C13.9236 11.1742 13.9527 10.9516 13.9319 10.7308C13.9111 10.5101 13.841 10.2968 13.7267 10.1068L12.8801 8.6935C12.6467 8.30683 12.4601 7.62016 12.4601 7.1735V5.7735C12.4534 3.3335 10.4534 1.3335 8.01339 1.3335Z" stroke="#48535B" stroke-miterlimit="10" stroke-linecap="round"/>
<path d="M10.22 12.5469C10.22 13.7669 9.22003 14.7669 8.00003 14.7669C7.39336 14.7669 6.83336 14.5135 6.43336 14.1135C6.03336 13.7135 5.78003 13.1535 5.78003 12.5469" stroke="#48535B" stroke-miterlimit="10"/>
</svg>
