<svg width="18" height="18" viewBox="0 0 18 18" fill="none" xmlns="http://www.w3.org/2000/svg">
<path d="M14.5642 5.8001L6.7175 1.87677C1.44666 -0.763231 -0.716669 1.4001 1.92333 6.67093L2.72083 8.26594C2.95 8.73344 2.95 9.27427 2.72083 9.74177L1.92333 11.3276C-0.716669 16.5984 1.4375 18.7618 6.7175 16.1218L14.5642 12.1984C18.0842 10.4384 18.0842 7.5601 14.5642 5.8001ZM11.6033 9.68677H6.65333C6.2775 9.68677 5.96583 9.3751 5.96583 8.99927C5.96583 8.62344 6.2775 8.31177 6.65333 8.31177H11.6033C11.9792 8.31177 12.2908 8.62344 12.2908 8.99927C12.2908 9.3751 11.9792 9.68677 11.6033 9.68677Z" fill="white"/>
</svg>
