<svg width="15" height="14" viewBox="0 0 15 14" fill="none" xmlns="http://www.w3.org/2000/svg">
<g clip-path="url(#clip0_714_2)">
<path d="M13.7094 3.49984V4.9115C13.7094 5.83317 13.126 6.4165 12.2044 6.4165H10.2094V2.339C10.2094 1.6915 10.7402 1.1665 11.3877 1.1665C12.0235 1.17234 12.6069 1.429 13.0269 1.849C13.4469 2.27484 13.7094 2.85817 13.7094 3.49984Z" stroke="#48535B" stroke-width="0.8" stroke-miterlimit="10" stroke-linecap="round" stroke-linejoin="round"/>
<path d="M2.0426 4.08317V12.2498C2.0426 12.734 2.59094 13.0082 2.97594 12.7165L3.97344 11.9698C4.20677 11.7948 4.53344 11.8182 4.74344 12.0282L5.71177 13.0023C5.93927 13.2298 6.3126 13.2298 6.5401 13.0023L7.5201 12.0223C7.72427 11.8182 8.05094 11.7948 8.27844 11.9698L9.27594 12.7165C9.66094 13.0023 10.2093 12.7282 10.2093 12.2498V2.33317C10.2093 1.6915 10.7343 1.1665 11.3759 1.1665H4.37594C2.62594 1.1665 2.0426 2.21067 2.0426 3.49984V4.08317Z" stroke="#48535B" stroke-width="0.8" stroke-miterlimit="10" stroke-linecap="round" stroke-linejoin="round"/>
<path d="M4.52185 5.83317H7.73018M6.12602 7.43734V4.229" stroke="#48535B" stroke-width="0.8" stroke-linecap="round" stroke-linejoin="round"/>
</g>
<defs>
<clipPath id="clip0_714_2">
<rect width="14" height="14" fill="white" transform="translate(0.875977)"/>
</clipPath>
</defs>
</svg>
