<svg width="10" height="10" viewBox="0 0 10 10" fill="none" xmlns="http://www.w3.org/2000/svg">
<path fill-rule="evenodd" clip-rule="evenodd" d="M5.0001 5.82476L8.30002 9.12467C8.41004 9.23093 8.55739 9.28973 8.71033 9.2884C8.86328 9.28707 9.00959 9.22572 9.11775 9.11757C9.2259 9.00941 9.28725 8.86311 9.28858 8.71016C9.28991 8.55721 9.23111 8.40986 9.12485 8.29984L5.82493 4.99992L9.12485 1.70001C9.23111 1.58999 9.28991 1.44264 9.28858 1.28969C9.28725 1.13674 9.2259 0.990435 9.11775 0.88228C9.00959 0.774126 8.86328 0.712777 8.71033 0.711448C8.55739 0.710119 8.41004 0.768915 8.30002 0.875174L5.0001 4.17509L1.70018 0.875174C1.58967 0.771542 1.44317 0.714971 1.29169 0.717431C1.14021 0.71989 0.995629 0.781188 0.888539 0.888354C0.781449 0.99552 0.720254 1.14015 0.717901 1.29163C0.715548 1.44311 0.772223 1.58957 0.875934 1.70001L4.17527 4.99992L0.87535 8.29984C0.819636 8.35365 0.775197 8.41802 0.744625 8.48919C0.714053 8.56036 0.697961 8.6369 0.697288 8.71436C0.696615 8.79181 0.711374 8.86862 0.740704 8.94031C0.770035 9.012 0.813349 9.07714 0.86812 9.13191C0.922891 9.18668 0.988021 9.22999 1.05971 9.25932C1.1314 9.28865 1.20821 9.30341 1.28567 9.30274C1.36312 9.30206 1.43967 9.28597 1.51084 9.2554C1.58201 9.22483 1.64637 9.18039 1.70018 9.12467L5.0001 5.82476Z" fill="#344054"/>
</svg>
