<svg width="24" height="24" viewBox="0 0 24 24" fill="none" xmlns="http://www.w3.org/2000/svg">
<path fill-rule="evenodd" clip-rule="evenodd" d="M11.293 8.29315C11.4806 8.10567 11.7349 8.00036 12 8.00036C12.2652 8.00036 12.5195 8.10567 12.707 8.29315L18.364 13.9501C18.4595 14.0424 18.5357 14.1527 18.5881 14.2747C18.6405 14.3967 18.6681 14.528 18.6693 14.6607C18.6704 14.7935 18.6451 14.9252 18.5948 15.0481C18.5446 15.171 18.4703 15.2826 18.3764 15.3765C18.2825 15.4704 18.1709 15.5447 18.048 15.595C17.9251 15.6452 17.7934 15.6705 17.6606 15.6694C17.5278 15.6682 17.3966 15.6407 17.2746 15.5882C17.1526 15.5358 17.0423 15.4597 16.95 15.3641L12 10.4141L7.05002 15.3641C6.86142 15.5463 6.60882 15.6471 6.34662 15.6448C6.08443 15.6425 5.83361 15.5374 5.6482 15.352C5.4628 15.1666 5.35763 14.9157 5.35535 14.6535C5.35307 14.3913 5.45386 14.1387 5.63602 13.9501L11.293 8.29315Z" fill="black"/>
</svg>
