<svg width="18" height="18" viewBox="0 0 18 18" fill="none" xmlns="http://www.w3.org/2000/svg">
<g clip-path="url(#clip0_519_1021)">
<path d="M15.1369 15.0479H2.86273C2.58387 15.0479 2.34616 14.8467 2.2993 14.5725L1.00789 6.9531C0.972457 6.74053 1.05817 6.52682 1.2296 6.39882C1.40102 6.26968 1.62959 6.24797 1.82388 6.34511L5.53242 8.17366L8.49925 2.77257C8.69924 2.40914 9.30038 2.40914 9.50038 2.77257L12.4672 8.17366L16.1757 6.34511C16.3677 6.24797 16.5975 6.26968 16.77 6.39882C16.9415 6.52682 17.0283 6.74168 16.9917 6.9531L15.7003 14.5725C15.6535 14.8467 15.4146 15.0479 15.1369 15.0479Z" fill="#FCC34A"/>
</g>
<defs>
<clipPath id="clip0_519_1021">
<rect width="18" height="18" fill="white"/>
</clipPath>
</defs>
</svg>
