<svg width="20" height="20" viewBox="0 0 20 20" fill="none" xmlns="http://www.w3.org/2000/svg">
<path d="M13.875 16.8333C13.875 14.8916 11.9416 13.3083 9.54998 13.3083C7.15831 13.3083 5.22498 14.8833 5.22498 16.8333M9.54998 11.4416C10.171 11.4416 10.7666 11.1949 11.2058 10.7558C11.6449 10.3166 11.8916 9.72102 11.8916 9.09997C11.8916 8.47892 11.6449 7.88331 11.2058 7.44416C10.7666 7.00501 10.171 6.7583 9.54998 6.7583C8.92893 6.7583 8.33332 7.00501 7.89417 7.44416C7.45502 7.88331 7.20831 8.47892 7.20831 9.09997C7.20831 9.72102 7.45502 10.3166 7.89417 10.7558C8.33332 11.1949 8.92893 11.4416 9.54998 11.4416Z" stroke="white" stroke-linecap="round" stroke-linejoin="round"/>
<path d="M17.5 10.4167C17.5 14.7917 13.9583 18.3333 9.58329 18.3333C5.20829 18.3333 1.66663 14.7917 1.66663 10.4167C1.66663 6.04167 5.20829 2.5 9.58329 2.5C10.675 2.5 11.7166 2.71667 12.6666 3.11667C12.5583 3.45 12.5 3.8 12.5 4.16667C12.5 4.79167 12.675 5.38333 12.9833 5.88333C13.15 6.16667 13.3666 6.425 13.6166 6.64167C14.2 7.175 14.975 7.5 15.8333 7.5C16.2 7.5 16.55 7.44167 16.875 7.325C17.275 8.275 17.5 9.325 17.5 10.4167Z" stroke="white" stroke-linecap="round" stroke-linejoin="round"/>
<path d="M17.075 4.15017H14.5917M15.8333 2.9335V5.42517M19.1667 4.16683C19.1667 4.4335 19.1333 4.69183 19.0667 4.94183C18.9917 5.27517 18.8583 5.60017 18.6833 5.8835C18.2833 6.5585 17.6417 7.0835 16.875 7.32517C16.55 7.44183 16.2 7.50017 15.8333 7.50017C15.0129 7.50258 14.2216 7.19617 13.6167 6.64183C13.3667 6.42517 13.15 6.16683 12.9833 5.8835C12.6661 5.36719 12.4988 4.77281 12.5 4.16683C12.5 3.80017 12.5583 3.45017 12.6667 3.11683C12.8869 2.45131 13.3116 1.87228 13.8802 1.46228C14.4488 1.05228 15.1323 0.832231 15.8333 0.833502C16.8167 0.833502 17.7083 1.2585 18.3083 1.94183C18.8417 2.5335 19.1667 3.31683 19.1667 4.16683Z" stroke="white" stroke-miterlimit="10" stroke-linecap="round" stroke-linejoin="round"/>
</svg>
